<?xml version="1.0" encoding="UTF-8" standalone="no"?>
<svg
   fill="#6c67fa"
   viewBox="0 0 64 44"
   version="1.1"
   id="svg1"
   sodipodi:docname="logo.svg"
   width="64"
   height="44"
   inkscape:version="1.3.2 (091e20ef0f, 2023-11-25)"
   xmlns:inkscape="http://www.inkscape.org/namespaces/inkscape"
   xmlns:sodipodi="http://sodipodi.sourceforge.net/DTD/sodipodi-0.dtd"
   xmlns="http://www.w3.org/2000/svg"
   xmlns:svg="http://www.w3.org/2000/svg">
  <defs
     id="defs1" />
  <sodipodi:namedview
     id="namedview1"
     pagecolor="#ffffff"
     bordercolor="#000000"
     borderopacity="0.25"
     inkscape:showpageshadow="2"
     inkscape:pageopacity="0.0"
     inkscape:pagecheckerboard="0"
     inkscape:deskcolor="#d1d1d1"
     inkscape:zoom="13.21875"
     inkscape:cx="32"
     inkscape:cy="32"
     inkscape:window-width="1920"
     inkscape:window-height="1043"
     inkscape:window-x="0"
     inkscape:window-y="0"
     inkscape:window-maximized="1"
     inkscape:current-layer="svg1" />
  <g
     id="a" />
  <g
     id="b" />
  <g
     id="c" />
  <g
     id="d" />
  <g
     id="e" />
  <g
     id="f" />
  <g
     id="g" />
  <g
     id="h" />
  <g
     id="i" />
  <g
     id="j" />
  <g
     id="k" />
  <g
     id="l" />
  <g
     id="m" />
  <g
     id="n" />
  <g
     id="o" />
  <g
     id="p" />
  <g
     id="q" />
  <g
     id="r" />
  <g
     id="s" />
  <g
     id="t" />
  <g
     id="u" />
  <g
     id="v" />
  <g
     id="w" />
  <g
     id="x" />
  <g
     id="y" />
  <g
     id="a`" />
  <g
     id="aa" />
  <g
     id="ab" />
  <g
     id="ac" />
  <g
     id="ad" />
  <g
     id="ae"
     transform="matrix(1.0712599,0,0,1.0463315,-2.2920984,-11.165941)">
    <path
       d="m 12.45,43.08 c 0.55,0.79 1.46,1.26 2.42,1.26 h 9.32 l 1.48,5.38 c 0.33,1.18 1.88,1.49 2.63,0.5 l 4.43,-5.88 h 6.63 c 0.92,0 1.79,-0.36 2.44,-1.01 L 52.58,32.55 c 0.7,-0.7 0.97,-1.72 0.71,-2.67 l -1.89,-7.04 7.61,-2.33 c 0.55,-0.17 0.95,-0.65 1,-1.23 0.05,-0.58 -0.25,-1.12 -0.77,-1.38 L 49.15,12.78 c -0.33,-0.17 -0.69,-0.23 -1.05,-0.18 -0.73,0.1 -1.34,0.64 -1.52,1.36 L 43.36,27.06 10.66,18.5 C 9.62,18.23 8.53,18.77 8.11,19.76 l -3.88,9.23 c -0.38,0.91 -0.27,1.93 0.29,2.73 l 7.93,11.35 z m 1.64,-1.15 -7,-10.02 14.66,3.56 1.88,6.87 h -8.76 c -0.31,0 -0.6,-0.15 -0.78,-0.41 z m 13.23,6.26 -2.89,-10.52 6.44,5.8 z m 23.56,-27.29 -1.55,-5.79 7.7,3.91 z m -3.06,-3.68 3.53,13.17 c 0.07,0.26 0,0.55 -0.2,0.74 L 42.18,40.1 47.81,17.22 Z M 9.95,20.54 c 0.03,-0.07 0.09,-0.11 0.16,-0.11 0.01,0 0.03,0 0.04,0 l 32.71,8.55 -3.26,13.24 c -0.09,0.02 -0.16,0.11 -0.26,0.11 H 32.6 L 23.23,33.89 C 23.11,33.78 22.96,33.7 22.8,33.66 L 6.13,29.62 9.95,20.53 Z"
       id="path1" />
  </g>
  <g
     id="af" />
  <g
     id="ag" />
  <g
     id="ah" />
  <g
     id="ai" />
  <g
     id="aj" />
  <g
     id="ak" />
  <g
     id="al" />
  <g
     id="am" />
  <g
     id="an" />
  <g
     id="ao" />
  <g
     id="ap" />
  <g
     id="aq" />
  <g
     id="ar" />
  <g
     id="as" />
  <g
     id="at" />
  <g
     id="au" />
  <g
     id="av" />
  <g
     id="aw" />
  <g
     id="ax" />
</svg>
